<svg width="48" height="48" viewBox="0 0 48 48" fill="none" xmlns="http://www.w3.org/2000/svg">
<path d="M31.568 7.127C30.7531 5.86038 29.633 4.81873 28.3107 4.09765C26.9884 3.37656 25.5062 2.99913 24 3C22.4939 2.99913 21.0116 3.37656 19.6893 4.09765C18.367 4.81873 17.247 5.86038 16.432 7.127C15.5474 6.30956 14.4896 5.70243 13.3376 5.35089C12.1855 4.99935 10.969 4.91248 9.77871 5.09676C8.58841 5.28104 7.45509 5.73172 6.4633 6.41517C5.4715 7.09861 4.64683 7.99719 4.05081 9.04386C3.45479 10.0905 3.1028 11.2583 3.02111 12.46C2.93942 13.6617 3.13012 14.8663 3.57901 15.984C4.02789 17.1017 4.72336 18.1036 5.61354 18.915C6.50372 19.7264 7.56561 20.3263 8.72002 20.67C9.28416 27.8688 10.011 35.054 10.9 42.22C11.07 43.58 12.151 44.62 13.52 44.708C15.606 44.842 19.1 45 24 45C28.9 45 32.394 44.842 34.48 44.707C35.849 44.619 36.93 43.579 37.1 42.219C37.989 35.0534 38.7159 27.8685 39.28 20.67C40.4344 20.3263 41.4963 19.7264 42.3865 18.915C43.2767 18.1036 43.9721 17.1017 44.421 15.984C44.8699 14.8663 45.0606 13.6617 44.9789 12.46C44.8972 11.2583 44.5452 10.0905 43.9492 9.04386C43.3532 7.99719 42.5285 7.09861 41.5367 6.41517C40.5449 5.73172 39.4116 5.28104 38.2213 5.09676C37.031 4.91248 35.8145 4.99935 34.6625 5.35089C33.5104 5.70243 32.4526 6.30956 31.568 7.127Z" stroke="black" stroke-width="3" stroke-linecap="round" stroke-linejoin="round"/>
<path d="M37.754 37.363C35.197 37.23 30.918 37.098 24.001 37.098C17.083 37.098 12.804 37.23 10.248 37.363" stroke="black" stroke-width="3" stroke-linecap="round" stroke-linejoin="round"/>
<path d="M19 21L20 29" stroke="black" stroke-width="3" stroke-linecap="round"/>
<path d="M29 21L28 29" stroke="black" stroke-width="3" stroke-linecap="round"/>
</svg>
